<svg width="80" height="67" viewBox="0 0 80 67" fill="none" xmlns="http://www.w3.org/2000/svg">
<path style="mix-blend-mode:multiply" d="M41.3092 53.0153C52.4846 53.0153 61.5442 44.3479 61.5442 33.6561C61.5442 22.9643 52.4846 14.2969 41.3092 14.2969C30.1337 14.2969 21.0742 22.9643 21.0742 33.6561C21.0742 44.3479 30.1337 53.0153 41.3092 53.0153Z" fill="url(#paint0_radial_94_5353)"/>
<path d="M54.2952 44.4928C61.4675 37.631 61.4674 26.5058 54.2952 19.644C47.123 12.7822 35.4946 12.7822 28.3224 19.644C21.1502 26.5058 21.1502 37.631 28.3224 44.4928C35.4946 51.3546 47.123 51.3546 54.2952 44.4928Z" fill="url(#paint1_linear_94_5353)"/>
<path d="M41.3117 9.10157C40.6924 9.10157 40.1914 8.62077 40.1914 8.02972V1.07185C40.1914 0.479272 40.694 0 41.3117 0C41.9311 0 42.4321 0.480803 42.4321 1.07185V8.02972C42.4321 8.6223 41.9295 9.10157 41.3117 9.10157Z" fill="url(#paint2_linear_94_5353)"/>
<path d="M41.3117 63.8579C40.6924 63.8579 40.1914 63.3771 40.1914 62.7861V55.8282C40.1914 55.2356 40.694 54.7563 41.3117 54.7563C41.9311 54.7563 42.4321 55.2372 42.4321 55.8282V62.7861C42.4321 63.3786 41.9295 63.8579 41.3117 63.8579Z" fill="url(#paint3_linear_94_5353)"/>
<path d="M58.1793 15.7868C57.7423 15.3673 57.7423 14.6889 58.1793 14.2709L63.3216 9.35111C63.7586 8.93309 64.4692 8.93309 64.9061 9.35111C65.343 9.77067 65.343 10.449 64.9061 10.867L59.7637 15.7868C59.3268 16.2049 58.6162 16.2049 58.1793 15.7868Z" fill="url(#paint4_linear_94_5353)"/>
<path d="M17.7105 54.5056C17.2736 54.0876 17.2736 53.4077 17.7105 52.9897L22.8529 48.0699C23.2898 47.6518 24.0004 47.6518 24.4373 48.0699C24.8743 48.4894 24.8743 49.1677 24.4373 49.5858L19.295 54.5056C18.858 54.9236 18.1474 54.9236 17.7105 54.5056Z" fill="url(#paint5_linear_94_5353)"/>
<path d="M65.168 31.9293C65.168 31.3367 65.6705 30.8574 66.2883 30.8574H73.5609C74.1803 30.8574 74.6813 31.3382 74.6813 31.9293C74.6813 32.5219 74.1787 33.0011 73.5609 33.0011H66.2883C65.6689 33.0011 65.168 32.5203 65.168 31.9293Z" fill="url(#paint6_linear_94_5353)"/>
<path d="M7.9375 31.9293C7.9375 31.3367 8.44005 30.8574 9.05784 30.8574H16.3305C16.9499 30.8574 17.4508 31.3382 17.4508 31.9293C17.4508 32.5219 16.9483 33.0011 16.3305 33.0011H9.05784C8.43845 33.0011 7.9375 32.5203 7.9375 31.9293Z" fill="url(#paint7_linear_94_5353)"/>
<path d="M58.1793 48.0699C58.6162 47.6518 59.3268 47.6518 59.7637 48.0699L64.9061 52.9897C65.343 53.4077 65.343 54.0876 64.9061 54.5056C64.4692 54.9236 63.7586 54.9236 63.3216 54.5056L58.1793 49.5858C57.7423 49.1662 57.7423 48.4879 58.1793 48.0699Z" fill="url(#paint8_linear_94_5353)"/>
<path d="M17.7105 9.35111C18.1474 8.93309 18.858 8.93309 19.295 9.35111L24.4373 14.2709C24.8743 14.6889 24.8743 15.3688 24.4373 15.7868C24.0004 16.2049 23.2898 16.2049 22.8529 15.7868L17.7105 10.867C17.2736 10.449 17.2736 9.76914 17.7105 9.35111Z" fill="url(#paint9_linear_94_5353)"/>
<path style="mix-blend-mode:screen" d="M70.3542 48.1861C68.5937 48.1861 66.942 48.6378 65.5208 49.4264C65.5656 49.0069 65.5896 48.5827 65.5896 48.1524C65.5896 41.4013 59.8694 35.9287 52.8129 35.9287C45.7563 35.9287 40.0362 41.4013 40.0362 48.1524C40.0362 48.9349 40.1146 49.699 40.2603 50.4401C39.4488 50.1997 38.5878 50.0711 37.6947 50.0711C32.9108 50.0711 29.0312 53.7812 29.0312 58.3596C29.0312 62.9379 32.9092 66.648 37.6947 66.648H70.3526C75.6806 66.648 80.0004 62.5153 80.0004 57.4179C80.0004 52.3204 75.6806 48.1877 70.3526 48.1877L70.3542 48.1861Z" fill="url(#paint10_linear_94_5353)"/>
<path style="mix-blend-mode:screen" d="M70.3542 48.1861C68.5937 48.1861 66.942 48.6378 65.5208 49.4264C65.5656 49.0069 65.5896 48.5827 65.5896 48.1524C65.5896 41.4013 59.8694 35.9287 52.8129 35.9287C45.7563 35.9287 40.0362 41.4013 40.0362 48.1524C40.0362 48.9349 40.1146 49.699 40.2603 50.4401C39.4488 50.1997 38.5878 50.0711 37.6947 50.0711C32.9108 50.0711 29.0312 53.7812 29.0312 58.3596C29.0312 62.9379 32.9092 66.648 37.6947 66.648H70.3526C75.6806 66.648 80.0004 62.5153 80.0004 57.4179C80.0004 52.3204 75.6806 48.1877 70.3526 48.1877L70.3542 48.1861Z" fill="url(#paint11_linear_94_5353)"/>
<path style="mix-blend-mode:screen" d="M41.323 40.2408C39.5624 40.2408 37.9107 40.6925 36.4895 41.4811C36.5343 41.0615 36.5583 40.6374 36.5583 40.2071C36.5583 33.456 30.8382 27.9834 23.7816 27.9834C16.7251 27.9834 11.005 33.456 11.005 40.2071C11.005 40.9896 11.0834 41.7537 11.229 42.4948C10.4176 42.2544 9.55651 42.1257 8.66344 42.1257C3.87958 42.1257 0 45.8359 0 50.4142C0 54.9926 3.87798 58.7027 8.66344 58.7027H41.3214C46.6494 58.7027 50.9691 54.57 50.9691 49.4725C50.9691 44.3751 46.6494 40.2423 41.3214 40.2423L41.323 40.2408Z" fill="url(#paint12_linear_94_5353)"/>
<path style="mix-blend-mode:screen" d="M41.323 40.2408C39.5624 40.2408 37.9107 40.6925 36.4895 41.4811C36.5343 41.0615 36.5583 40.6374 36.5583 40.2071C36.5583 33.456 30.8382 27.9834 23.7816 27.9834C16.7251 27.9834 11.005 33.456 11.005 40.2071C11.005 40.9896 11.0834 41.7537 11.229 42.4948C10.4176 42.2544 9.55651 42.1257 8.66344 42.1257C3.87958 42.1257 0 45.8359 0 50.4142C0 54.9926 3.87798 58.7027 8.66344 58.7027H41.3214C46.6494 58.7027 50.9691 54.57 50.9691 49.4725C50.9691 44.3751 46.6494 40.2423 41.3214 40.2423L41.323 40.2408Z" fill="url(#paint13_linear_94_5353)"/>
<defs>
<radialGradient id="paint0_radial_94_5353" cx="0" cy="0" r="1" gradientUnits="userSpaceOnUse" gradientTransform="translate(41.3092 33.6561) scale(19.8701 19.0101)">
<stop/>
<stop offset="1" stop-color="white"/>
</radialGradient>
<linearGradient id="paint1_linear_94_5353" x1="22.9431" y1="32.0683" x2="59.6742" y2="32.0683" gradientUnits="userSpaceOnUse">
<stop stop-color="#FDCC4B"/>
<stop offset="1" stop-color="#FCB949"/>
</linearGradient>
<linearGradient id="paint2_linear_94_5353" x1="40.1914" y1="4.55079" x2="42.4321" y2="4.55079" gradientUnits="userSpaceOnUse">
<stop stop-color="#FDCC4B"/>
<stop offset="1" stop-color="#FCB949"/>
</linearGradient>
<linearGradient id="paint3_linear_94_5353" x1="40.1914" y1="59.3056" x2="42.4321" y2="59.3056" gradientUnits="userSpaceOnUse">
<stop stop-color="#FDCC4B"/>
<stop offset="1" stop-color="#FCB949"/>
</linearGradient>
<linearGradient id="paint4_linear_94_5353" x1="60.7502" y1="11.8114" x2="62.2646" y2="13.3943" gradientUnits="userSpaceOnUse">
<stop stop-color="#FDCC4B"/>
<stop offset="1" stop-color="#FCB949"/>
</linearGradient>
<linearGradient id="paint5_linear_94_5353" x1="20.2813" y1="50.5304" x2="21.7956" y2="52.1133" gradientUnits="userSpaceOnUse">
<stop stop-color="#FDCC4B"/>
<stop offset="1" stop-color="#FCB949"/>
</linearGradient>
<linearGradient id="paint6_linear_94_5353" x1="69.9262" y1="30.8559" x2="69.9262" y2="33.0011" gradientUnits="userSpaceOnUse">
<stop stop-color="#FDCC4B"/>
<stop offset="1" stop-color="#FCB949"/>
</linearGradient>
<linearGradient id="paint7_linear_94_5353" x1="12.6958" y1="30.8559" x2="12.6958" y2="33.0011" gradientUnits="userSpaceOnUse">
<stop stop-color="#FDCC4B"/>
<stop offset="1" stop-color="#FCB949"/>
</linearGradient>
<linearGradient id="paint8_linear_94_5353" x1="62.3307" y1="50.5243" x2="60.8153" y2="52.1083" gradientUnits="userSpaceOnUse">
<stop stop-color="#FDCC4B"/>
<stop offset="1" stop-color="#FCB949"/>
</linearGradient>
<linearGradient id="paint9_linear_94_5353" x1="21.8618" y1="11.8053" x2="20.3463" y2="13.3893" gradientUnits="userSpaceOnUse">
<stop stop-color="#FDCC4B"/>
<stop offset="1" stop-color="#FCB949"/>
</linearGradient>
<linearGradient id="paint10_linear_94_5353" x1="29.0329" y1="51.2884" x2="80.002" y2="51.2884" gradientUnits="userSpaceOnUse">
<stop stop-color="white"/>
<stop offset="1"/>
</linearGradient>
<linearGradient id="paint11_linear_94_5353" x1="29.0329" y1="51.2884" x2="80.002" y2="51.2884" gradientUnits="userSpaceOnUse">
<stop/>
<stop offset="1" stop-color="white"/>
</linearGradient>
<linearGradient id="paint12_linear_94_5353" x1="0.00160049" y1="43.3431" x2="50.9691" y2="43.3431" gradientUnits="userSpaceOnUse">
<stop/>
<stop offset="1" stop-color="white"/>
</linearGradient>
<linearGradient id="paint13_linear_94_5353" x1="0.00160049" y1="43.3431" x2="50.9691" y2="43.3431" gradientUnits="userSpaceOnUse">
<stop stop-color="white"/>
<stop offset="1"/>
</linearGradient>
</defs>
</svg>
