<svg width="19" height="14" viewBox="0 0 19 14" fill="none" xmlns="http://www.w3.org/2000/svg">
<path d="M8.74745 4.69183C8.80016 4.74851 8.86276 4.79349 8.93169 4.82417C9.00062 4.85486 9.07451 4.87065 9.14914 4.87065C9.22377 4.87065 9.29766 4.85486 9.36659 4.82417C9.43552 4.79349 9.49813 4.74851 9.55083 4.69183L11.2529 2.86574C11.3056 2.80915 11.3475 2.74196 11.376 2.66801C11.4046 2.59407 11.4193 2.51482 11.4193 2.43478C11.4193 2.35475 11.4046 2.27549 11.376 2.20155C11.3475 2.12761 11.3056 2.06042 11.2529 2.00383C11.2001 1.94723 11.1375 1.90234 11.0686 1.87171C10.9997 1.84108 10.9258 1.82532 10.8512 1.82532C10.7766 1.82532 10.7027 1.84108 10.6338 1.87171C10.5649 1.90234 10.5023 1.94723 10.4495 2.00383L9.7165 2.79148V0.608696C9.7165 0.447259 9.65672 0.292435 9.55032 0.178283C9.44392 0.0641302 9.29961 0 9.14914 0C8.99867 0 8.85436 0.0641302 8.74796 0.178283C8.64156 0.292435 8.58179 0.447259 8.58179 0.608696V2.79148L7.84876 2.00383C7.79601 1.94723 7.73339 1.90234 7.66447 1.87171C7.59554 1.84108 7.52167 1.82532 7.44707 1.82532C7.37247 1.82532 7.2986 1.84108 7.22968 1.87171C7.16076 1.90234 7.09814 1.94723 7.04538 2.00383C6.99263 2.06042 6.95079 2.12761 6.92224 2.20155C6.89369 2.27549 6.879 2.35475 6.879 2.43478C6.879 2.51482 6.89369 2.59407 6.92224 2.66801C6.95079 2.74196 6.99263 2.80915 7.04538 2.86574L8.74745 4.69183ZM2.73008 4.07096C2.83647 3.95684 2.98075 3.89274 3.1312 3.89274C3.28164 3.89274 3.42592 3.95684 3.53232 4.07096L5.1368 5.79113C5.24015 5.90593 5.29734 6.05969 5.29604 6.21929C5.29475 6.37889 5.23508 6.53155 5.12989 6.64441C5.0247 6.75727 4.8824 6.82128 4.73364 6.82267C4.58488 6.82406 4.44156 6.7627 4.33456 6.65183L2.73008 4.93043C2.62371 4.81629 2.56396 4.66149 2.56396 4.50009C2.56396 4.33868 2.62371 4.18389 2.73008 4.06974V4.07096ZM15.5682 4.07096C15.6742 4.18505 15.7338 4.33959 15.7338 4.5007C15.7338 4.6618 15.6742 4.81634 15.5682 4.93043L13.9637 6.65183C13.9114 6.70996 13.8488 6.75633 13.7796 6.78824C13.7103 6.82014 13.6359 6.83693 13.5606 6.83763C13.4852 6.83833 13.4105 6.82293 13.3408 6.79233C13.2711 6.76172 13.2077 6.71652 13.1544 6.65937C13.1012 6.60222 13.0591 6.53426 13.0305 6.45945C13.002 6.38464 12.9876 6.30449 12.9883 6.22367C12.989 6.14285 13.0046 6.06297 13.0343 5.98871C13.0641 5.91445 13.1073 5.84728 13.1615 5.79113L14.766 4.06974C14.8724 3.95563 15.0166 3.89152 15.1671 3.89152C15.3175 3.89152 15.4618 3.95563 15.5682 4.06974V4.07096ZM9.14914 7.30435C9.74678 7.30415 10.3339 7.47276 10.8516 7.79322C11.3692 8.11369 11.7991 8.57471 12.098 9.12995C12.3969 9.68518 12.5543 10.3151 12.5543 10.9562C12.5544 11.5974 12.3971 12.2273 12.0983 12.7826H6.19889C5.90002 12.2272 5.74273 11.5972 5.74282 10.9559C5.74292 10.3146 5.9004 9.68469 6.19944 9.12942C6.49847 8.57415 6.92851 8.11314 7.44631 7.79277C7.96411 7.47239 8.55141 7.30394 9.14914 7.30435ZM13.3589 12.7826C13.6371 12.0435 13.742 11.2423 13.6642 10.4496C13.5864 9.65683 13.3285 8.89667 12.9129 8.23585C12.4974 7.57503 11.937 7.03376 11.281 6.65956C10.6249 6.28536 9.89328 6.08967 9.15028 6.08967C8.40728 6.08967 7.67564 6.28536 7.01959 6.65956C6.36355 7.03376 5.80316 7.57503 5.38763 8.23585C4.97209 8.89667 4.71412 9.65683 4.63636 10.4496C4.55859 11.2423 4.66342 12.0435 4.94163 12.7826H0.637668C0.487196 12.7826 0.342887 12.8467 0.236487 12.9609C0.130087 13.075 0.0703125 13.2299 0.0703125 13.3913C0.0703125 13.5527 0.130087 13.7076 0.236487 13.8217C0.342887 13.9359 0.487196 14 0.637668 14H17.6583C17.8088 14 17.9531 13.9359 18.0595 13.8217C18.1659 13.7076 18.2257 13.5527 18.2257 13.3913C18.2257 13.2299 18.1659 13.075 18.0595 12.9609C17.9531 12.8467 17.8088 12.7826 17.6583 12.7826H13.3578H13.3589ZM0.0714472 10.9565C0.0714472 10.7951 0.131222 10.6403 0.237622 10.5261C0.344022 10.412 0.488331 10.3478 0.638803 10.3478H2.90823C3.0587 10.3478 3.20301 10.412 3.30941 10.5261C3.41581 10.6403 3.47558 10.7951 3.47558 10.9565C3.47558 11.118 3.41581 11.2728 3.30941 11.3869C3.20301 11.5011 3.0587 11.5652 2.90823 11.5652H0.638803C0.488331 11.5652 0.344022 11.5011 0.237622 11.3869C0.131222 11.2728 0.0714472 11.118 0.0714472 10.9565ZM14.8227 10.9565C14.8227 10.7951 14.8825 10.6403 14.9889 10.5261C15.0953 10.412 15.2396 10.3478 15.3901 10.3478H17.6595C17.81 10.3478 17.9543 10.412 18.0607 10.5261C18.1671 10.6403 18.2268 10.7951 18.2268 10.9565C18.2268 11.118 18.1671 11.2728 18.0607 11.3869C17.9543 11.5011 17.81 11.5652 17.6595 11.5652H15.3901C15.2396 11.5652 15.0953 11.5011 14.9889 11.3869C14.8825 11.2728 14.8227 11.118 14.8227 10.9565Z" fill="#FDCC4B"/>
</svg>
