<svg width="19" height="14" viewBox="0 0 19 14" fill="none" xmlns="http://www.w3.org/2000/svg">
<path d="M8.74745 0.178813C8.80015 0.122132 8.86276 0.0771616 8.93169 0.0464779C9.00062 0.0157942 9.07451 0 9.14914 0C9.22377 0 9.29766 0.0157942 9.36659 0.0464779C9.43552 0.0771616 9.49813 0.122132 9.55083 0.178813L11.2529 2.00476C11.3056 2.06135 11.3475 2.12853 11.376 2.20247C11.4046 2.27641 11.4193 2.35565 11.4193 2.43568C11.4193 2.51571 11.4046 2.59496 11.376 2.6689C11.3475 2.74283 11.3056 2.81001 11.2529 2.8666C11.2001 2.92319 11.1375 2.96808 11.0686 2.99871C10.9997 3.02934 10.9258 3.0451 10.8512 3.0451C10.7766 3.0451 10.7027 3.02934 10.6338 2.99871C10.5649 2.96808 10.5023 2.92319 10.4495 2.8666L9.7165 2.07901V4.26163C9.7165 4.42305 9.65672 4.57786 9.55032 4.69201C9.44392 4.80615 9.29961 4.87027 9.14914 4.87027C8.99867 4.87027 8.85436 4.80615 8.74796 4.69201C8.64156 4.57786 8.58178 4.42305 8.58178 4.26163V2.07901L7.84876 2.8666C7.79601 2.92319 7.73339 2.96808 7.66447 2.99871C7.59554 3.02934 7.52167 3.0451 7.44707 3.0451C7.37247 3.0451 7.2986 3.02934 7.22968 2.99871C7.16076 2.96808 7.09814 2.92319 7.04538 2.8666C6.99263 2.81001 6.95079 2.74283 6.92224 2.6689C6.89369 2.59496 6.879 2.51571 6.879 2.43568C6.879 2.35565 6.89369 2.27641 6.92224 2.20247C6.95079 2.12853 6.99263 2.06135 7.04538 2.00476L8.74745 0.178813ZM2.73008 4.07051C2.83647 3.95641 2.98075 3.89231 3.1312 3.89231C3.28164 3.89231 3.42592 3.95641 3.53232 4.07051L5.1368 5.79177C5.24015 5.90656 5.29733 6.06031 5.29604 6.21989C5.29475 6.37948 5.23508 6.53213 5.12989 6.64498C5.0247 6.75783 4.8824 6.82184 4.73364 6.82323C4.58488 6.82462 4.44156 6.76327 4.33456 6.6524L2.73008 4.93114C2.62371 4.817 2.56396 4.66222 2.56396 4.50083C2.56396 4.33943 2.62371 4.18465 2.73008 4.07051ZM15.5682 4.07051C15.6746 4.18465 15.7343 4.33943 15.7343 4.50083C15.7343 4.66222 15.6746 4.817 15.5682 4.93114L13.9637 6.6524C13.9114 6.71053 13.8488 6.7569 13.7796 6.7888C13.7103 6.82069 13.6359 6.83748 13.5606 6.83819C13.4852 6.83889 13.4105 6.82349 13.3408 6.79289C13.2711 6.76228 13.2077 6.71709 13.1544 6.65994C13.1012 6.60279 13.0591 6.53484 13.0305 6.46004C13.002 6.38523 12.9876 6.30509 12.9883 6.22427C12.989 6.14346 13.0046 6.06359 13.0343 5.98933C13.0641 5.91507 13.1073 5.84791 13.1615 5.79177L14.766 4.07051C14.8724 3.95641 15.0166 3.89231 15.1671 3.89231C15.3175 3.89231 15.4618 3.95641 15.5682 4.07051ZM9.14914 7.30487C9.74678 7.30467 10.3339 7.47327 10.8516 7.79371C11.3692 8.11415 11.7991 8.57514 12.098 9.13033C12.3969 9.68552 12.5543 10.3153 12.5543 10.9565C12.5544 11.5976 12.3971 12.2275 12.0983 12.7827H6.19889C5.90002 12.2274 5.74273 11.5974 5.74282 10.9562C5.74292 10.3149 5.9004 9.68503 6.19944 9.1298C6.49847 8.57457 6.92851 8.1136 7.44631 7.79325C7.96411 7.4729 8.5514 7.30446 9.14914 7.30487ZM13.3589 12.7827C13.6371 12.0436 13.742 11.2426 13.6642 10.4499C13.5864 9.65716 13.3285 8.89707 12.9129 8.2363C12.4974 7.57553 11.937 7.03431 11.281 6.66013C10.6249 6.28596 9.89328 6.09028 9.15028 6.09028C8.40728 6.09028 7.67564 6.28596 7.01959 6.66013C6.36355 7.03431 5.80316 7.57553 5.38762 8.2363C4.97209 8.89707 4.71412 9.65716 4.63636 10.4499C4.55859 11.2426 4.66342 12.0436 4.94163 12.7827H0.637668C0.487196 12.7827 0.342887 12.8468 0.236487 12.961C0.130087 13.0751 0.0703125 13.2299 0.0703125 13.3914C0.0703125 13.5528 0.130087 13.7076 0.236487 13.8217C0.342887 13.9359 0.487196 14 0.637668 14H17.6583C17.8088 14 17.9531 13.9359 18.0595 13.8217C18.1659 13.7076 18.2257 13.5528 18.2257 13.3914C18.2257 13.2299 18.1659 13.0751 18.0595 12.961C17.9531 12.8468 17.8088 12.7827 17.6583 12.7827H13.3578H13.3589ZM0.0714472 10.9568C0.0714472 10.7953 0.131222 10.6405 0.237622 10.5264C0.344022 10.4122 0.488331 10.3481 0.638803 10.3481H2.90823C3.0587 10.3481 3.20301 10.4122 3.30941 10.5264C3.41581 10.6405 3.47558 10.7953 3.47558 10.9568C3.47558 11.1182 3.41581 11.273 3.30941 11.3871C3.20301 11.5013 3.0587 11.5654 2.90823 11.5654H0.638803C0.488331 11.5654 0.344022 11.5013 0.237622 11.3871C0.131222 11.273 0.0714472 11.1182 0.0714472 10.9568ZM14.8227 10.9568C14.8227 10.7953 14.8825 10.6405 14.9889 10.5264C15.0953 10.4122 15.2396 10.3481 15.3901 10.3481H17.6595C17.81 10.3481 17.9543 10.4122 18.0607 10.5264C18.1671 10.6405 18.2268 10.7953 18.2268 10.9568C18.2268 11.1182 18.1671 11.273 18.0607 11.3871C17.9543 11.5013 17.81 11.5654 17.6595 11.5654H15.3901C15.2396 11.5654 15.0953 11.5013 14.9889 11.3871C14.8825 11.273 14.8227 11.1182 14.8227 10.9568Z" fill="#FDCC4B"/>
</svg>
